<?xml version="1.0" encoding="utf-8"?>
<!-- Generator: Adobe Illustrator 16.0.4, SVG Export Plug-In . SVG Version: 6.00 Build 0)  -->
<!DOCTYPE svg PUBLIC "-//W3C//DTD SVG 1.1//EN" "http://www.w3.org/Graphics/SVG/1.1/DTD/svg11.dtd">
<svg version="1.1" id="Layer_1" xmlns="http://www.w3.org/2000/svg" xmlns:xlink="http://www.w3.org/1999/xlink" x="0px" y="0px"
	 width="250px" height="187.5px" viewBox="25 18.75 250 187.5" enable-background="new 25 18.75 250 187.5" xml:space="preserve">
<g>
	<g>
		<path fill="none" d="M157.493,62.842c0,0,4.651,0.916,9.994,0.221c1.215-0.158,2.391-0.618,3.487-1.221
			c-0.566-0.253-4.934-1.995-13.203,0.03c-0.1,0.025-0.278,0.04-0.278,0.061C157.493,62.505,157.493,62.842,157.493,62.842z"/>
		<path fill="none" d="M25.108,208.39v1.86h21.905l-0.065-0.579C42.78,209.66,34.816,208.951,25.108,208.39z"/>
		<path fill="#19BEBE" d="M25.108,18.75v2.809c41.06-1.411,90.21-0.584,134.01,6.99c0,0-0.093,0.026-0.256,0.073
			c0.028,0.534,1.857,0.027,1.857,2.123c0,2.195-0.111,3.294-2.22,3.546c0,0-1.008-0.295-1.008,1.689c0,1.208,0,10.881,0,18.277
			c0-0.207,0.278-0.329,0.278-0.329s10.921-0.65,19.478,2.389c0,0,3.687,1.253,4.113,4.898c0.65,5.548-4.453,8.698-8.5,9.295
			c-9.841,1.455-15.368,0.382-15.368,0.382V172.1c0,0,0,7.601,0,9.372c0,1.777-0.705,15.685-26.76,20.5
			c-25.872,4.779-71.904,7.033-83.145,7.065v1.213h227.303V18.75H25.108z"/>
		<path fill="#FBB333" d="M158.852,28.548c-0.009,0.031,0.011,0.047,0.011,0.073c0.163-0.047,0.257-0.073,0.257-0.073
			c-43.8-7.574-92.951-8.401-134.011-6.99v16.218c6.922,0.176,14.24,0.277,22.005,0.277
			C121.393,38.054,158.852,28.548,158.852,28.548z"/>
		<path fill="#F46F22" d="M181.362,61.215c-0.428-3.645-4.112-4.898-4.112-4.898c-8.557-3.039-19.479-2.389-19.479-2.389
			s-0.278,0.122-0.278,0.328c0-7.396,0-17.069,0-18.277c0-1.985,1.008-1.689,1.008-1.689c2.108-0.252,2.22-1.351,2.22-3.546
			c0-2.096-1.829-1.59-1.858-2.123c0-0.026-0.019-0.042-0.011-0.073c0,0-37.458,9.506-111.738,9.506
			c-7.766,0-15.083-0.102-22.005-0.277v170.615c9.708,0.561,17.671,1.27,21.839,1.279l0.065,0.58h0.043h0.074h0.074h0.384v-1.213
			c11.24-0.033,57.274-2.287,83.145-7.065c26.055-4.815,26.76-18.724,26.76-20.5c0-1.771,0-9.371,0-9.371V70.892
			c0,0,5.527,1.073,15.369-0.381C176.91,69.913,182.014,66.764,181.362,61.215z"/>
		<g id="XMLID_1_">
			<g>
				<path fill="#19BEBE" d="M170.97,61.843c-1.087,0.6-2.272,1.058-3.485,1.225c-5.345,0.688-9.991-0.23-9.991-0.23s0-0.331,0-0.905
					c0-0.026,0.175-0.039,0.275-0.064C166.036,59.842,170.407,61.589,170.97,61.843z"/>
			</g>
		</g>
	</g>
	<g>
		<path fill="#FFFFFF" d="M195.279,195.115v-4.19c5.228,0,9.162-0.574,9.162-4.821c0-3.329-2.023-4.993-5.283-4.993
			c-2.979,0-5.789,3.043-7.756,5.453l0.056-0.058c-2.698,3.845-7.082,8.266-12.253,8.266c-5.227,0-9.274-3.387-9.274-8.955
			c0-7.747,5.676-8.551,12.759-8.551v4.189c-4.385,0-8.656,0.288-8.656,4.361c0,3.155,2.473,4.765,5.452,4.765
			c3.091,0,5.676-3.101,8.376-6.198h-0.058c3.261-3.73,6.633-7.461,11.298-7.461c5.957,0,9.443,2.983,9.443,9.182
			C208.545,193.278,203.936,195.115,195.279,195.115z M199.103,178.471c-8.206,0-11.972,13.718-19.616,13.718
			c-3.822,0-7.025-2.181-7.025-6.372c0-5.567,4.833-5.911,8.712-5.968v-0.976c-5.847,0-9.725,1.205-9.725,6.943
			c0,4.593,3.429,7.346,7.756,7.346c4.553,0,8.486-4.073,11.017-7.632v0.057c2.192-2.697,5.788-6.083,8.936-6.083
			c4.271,0,6.856,2.181,6.856,6.6c0,5.682-5.339,6.371-9.16,6.371v1.09c6.183,0,10.115-1.663,10.115-7.461
			C206.971,180.938,204.104,178.471,199.103,178.471z"/>
		<path fill="#FFFFFF" d="M187.974,166.821l20.233-11.02v4.879l-16.131,8.725l1.068,0.631h15.062v4.189h-37.938v-4.19h15.007
			l-15.007-8.438v-4.992L187.974,166.821z M171.842,160.681l19.11,10.905h-19.11v1.09h34.792v-1.09h-13.883l-3.711-2.296
			l17.594-9.584V158.5l-18.717,10.102l-16.075-9.182V160.681z"/>
		<path fill="#FFFFFF" d="M208.207,154.713h-37.882v-4.189h37.882V154.713z M171.842,152.074v1.09h34.792v-1.09H171.842z"/>
		<path fill="#FFFFFF" d="M208.207,147.023h-37.882v-4.132h33.778v-8.782h4.104V147.023L208.207,147.023z M205.678,135.661v8.779
			h-33.836v1.034h34.792v-9.813H205.678z"/>
		<path fill="#FFFFFF" d="M208.207,130.896h-37.882v-4.132h33.778v-8.779h4.104V130.896L208.207,130.896z M205.678,119.535v8.781
			h-33.836v1.031h34.792v-9.812H205.678z"/>
	</g>
	<g>
		<path fill="#FFFFFF" d="M238.978,181.455c1.912-2.755,5.396-3.674,8.768-3.674c6.24,0,10.455,2.182,10.455,9.298v8.036h-37.882
			v-6.486c0-7.174,3.709-10.216,10.454-10.216C233.975,178.413,237.011,179.045,238.978,181.455z M221.835,188.629v4.936h34.791
			v-6.485c0-5.912-3.597-7.69-8.881-7.69c-3.765,0-7.7,1.264-8.543,5.395c-1.405-3.729-4.776-4.764-8.431-4.764
			C224.983,180.02,221.835,182.603,221.835,188.629z M222.847,188.515c0-5.222,2.979-7.461,7.926-7.461
			c4.664,0,8.094,1.894,8.094,7.06v4.361h-16.019L222.847,188.515L222.847,188.515z M237.292,190.925v-2.812
			c0-4.017-2.755-5.452-6.52-5.452c-3.935,0-6.407,1.721-6.407,5.853v2.412H237.292z M255.614,192.475h-15.793v-4.822
			c0-5.336,2.979-7.173,7.926-7.173c4.721,0,7.867,1.436,7.867,6.772V192.475L255.614,192.475z M247.745,182.086
			c-3.935,0-6.35,1.378-6.35,5.568v3.271h12.702v-3.673C254.098,183.178,251.567,182.086,247.745,182.086z"/>
		<path fill="#FFFFFF" d="M248.59,175.258l-28.327,0.058v-4.247h28.046c3.485,0,6.127-1.665,6.127-5.281
			c0-3.672-2.643-5.336-6.127-5.336h-28.046v-4.249h28.327c5.901,0,9.947,3.271,9.947,9.585
			C258.537,172.043,254.491,175.258,248.59,175.258z M248.59,157.811h-26.755v1.032h26.473c4.385,0,7.7,2.182,7.7,6.945
			c0,4.707-3.315,6.887-7.7,6.887h-26.473v1.033l26.755-0.058c4.944,0,8.374-2.64,8.374-7.862S253.536,157.811,248.59,157.811z"/>
		<path fill="#FFFFFF" d="M258.2,152.646h-37.882v-4.188H258.2V152.646z M221.835,150.008v1.091h34.791v-1.091H221.835z"/>
		<path fill="#FFFFFF" d="M258.2,144.957h-37.882v-4.133h33.779v-8.781h4.103V144.957z M255.671,133.595v8.781h-33.836v1.033h34.791
			v-9.814H255.671z"/>
		<path fill="#FFFFFF" d="M258.2,128.43h-37.882v-8.264c0-7.003,4.721-9.586,10.791-9.586h16.3c6.125,0,10.791,2.526,10.791,9.586
			V128.43z M247.409,112.188h-16.3c-5.171,0-9.274,2.124-9.274,7.979v6.657h34.791v-6.657
			C256.626,114.254,252.692,112.188,247.409,112.188z M222.847,125.848v-5.281c0-5.451,3.71-7.403,8.543-7.403h15.738
			c4.833,0,8.543,1.952,8.543,7.403v5.281H222.847z M254.098,120.566c0-4.304-3.036-5.796-6.97-5.796H231.39
			c-3.935,0-7.025,1.492-7.025,5.796v3.674h29.733V120.566z"/>
		<path fill="#FFFFFF" d="M258.2,106.565h-37.882v-4.19H258.2V106.565z M221.835,103.926v1.09h34.791v-1.09H221.835z"/>
		<path fill="#FFFFFF" d="M258.2,94.342v4.19h-37.882v-3.501L245.386,84.7h-25.067v-4.19H258.2v3.501
			c-5.283,2.238-11.522,4.765-25.067,10.331H258.2z M256.626,82.979v-0.861h-34.791v0.975h31.588l-31.588,12.971v0.919h34.791
			v-1.091h-31.588C235.605,91.53,246.116,87.34,256.626,82.979z"/>
		<path fill="#FFFFFF" d="M247.971,76.438h-17.48c-5.845,0-10.565-3.042-10.565-9.643c0-7.174,4.89-9.183,12.59-9.183v4.19
			c-4.327,0-8.486,0.746-8.486,4.993c0,3.96,3.314,5.453,6.97,5.453h16.974c3.541,0,6.52-1.607,6.52-5.338
			c0-3.615-3.147-5.279-6.52-5.279h-6.575v6.198h-4.104V57.44h10.679c5.677,0,10.566,2.927,10.566,9.469
			C258.537,73.511,253.76,76.438,247.971,76.438z M247.971,58.99h-9.105v7.289h0.955v-6.256h8.149c4.159,0,8.037,2.181,8.037,6.887
			c0,4.822-3.71,6.888-8.037,6.888h-16.974c-4.496,0-8.545-1.895-8.545-7.002c0-5.05,4.328-6.6,8.714-6.6v-1.032
			c-5.508,0-9.668,2.181-9.668,7.632c0,5.453,4.046,8.035,8.993,8.035h17.479c4.945,0,9.049-2.468,9.049-7.921
			C257.019,61.456,252.805,58.99,247.971,58.99z"/>
	</g>
</g>
</svg>
