<?xml version="1.0" encoding="utf-8"?>
<!-- Generator: Adobe Illustrator 16.0.4, SVG Export Plug-In . SVG Version: 6.00 Build 0)  -->
<!DOCTYPE svg PUBLIC "-//W3C//DTD SVG 1.1//EN" "http://www.w3.org/Graphics/SVG/1.1/DTD/svg11.dtd">
<svg version="1.1" id="Layer_1" xmlns="http://www.w3.org/2000/svg" xmlns:xlink="http://www.w3.org/1999/xlink" x="0px" y="0px"
	 width="250px" height="187.5px" viewBox="-25 -18.75 250 187.5" enable-background="new -25 -18.75 250 187.5"
	 xml:space="preserve">
<g>
	<g>
		<path d="M205.321,69.873c-0.336,0.064-2.849,0.644-5.99,4.107c-0.036,0.041-0.216,0.174-0.209,0.183
			c0.175,0.255,0.274,0.403,0.274,0.403s2.493-1.104,4.711-3.069C204.609,71.05,205.005,70.479,205.321,69.873z"/>
		<path d="M92.914,146.6c-0.005,0.002-0.045,0.025-0.053,0.027c0.668-0.068,1.353-0.238,1.943-0.542
			c2.639-1.348,4.44-3.174,4.44-3.174s-0.109-0.161-0.299-0.438C94.163,144.336,92.914,146.6,92.914,146.6z"/>
		<path fill="#19BEBE" d="M94.626,151.066c-2.023,0.989-5.261,1.146-6.652-1.523c-0.911-1.755,0.385-3.457,0.385-3.457
			s0.026-0.002,0.05,0.007c-0.022-0.011-0.013-0.033-0.013-0.033c2.877-3.887,8.129-7.129,8.14-7.113
			c-2.231-3.271-5.086-7.457-5.448-7.987c-0.604-0.881-0.939-0.459-0.939-0.459c-1.034,0.543-1.42,0.088-2.086-0.891
			c-0.667-0.976,0.474-1.314,0.193-1.562c0,0,18.893-6.695,53.655-30.415c33.747-23.032,47.869-38.867,47.869-38.867
			c0.131,0.351,0.822-0.562,1.49,0.417c0.666,0.976,0.898,1.533,0.018,2.301c0,0-0.649,0.25-0.045,1.132
			c0.366,0.538,3.302,4.842,5.548,8.133c-0.064-0.091,0.128-0.301,0.128-0.301s4.867-3.745,9.677-5.045c0,0,2.057-0.586,3.356,0.904
			c1.981,2.267,0.516,5.32-1.141,6.843c-4.031,3.698-6.969,5.005-6.969,5.005L225,112.084V-18.75H-25v187.5h141.877l-15.186-22.256
			C101.691,146.494,99.54,148.662,94.626,151.066z"/>
		<path d="M225,168.75v-0.111c-0.045,0.038-0.09,0.074-0.135,0.111H225z"/>
		<path fill="#F46F22" d="M88.265,128.039c0,0,51.806-46.445,101.662-69.374c0,0-19.326,23.215-46.162,41.528
			C143.768,100.193,105.549,131.301,88.265,128.039z"/>
		<path fill="#FBB333" d="M201.844,78.149c0,0,2.938-1.306,6.967-5.003c1.657-1.521,3.123-4.575,1.142-6.843
			c-1.3-1.49-3.355-0.904-3.355-0.904c-4.813,1.301-9.678,5.045-9.678,5.045s-0.191,0.21-0.13,0.302
			c-2.246-3.291-5.182-7.595-5.547-8.133c-0.604-0.882,0.045-1.132,0.045-1.132c0.881-0.768,0.65-1.326-0.018-2.302
			c-0.666-0.977-1.359-0.064-1.489-0.416c0,0-14.124,15.835-47.871,38.868c-34.76,23.718-53.653,30.413-53.653,30.413
			c0.28,0.248-0.86,0.588-0.194,1.564s1.053,1.432,2.086,0.891c0,0,0.336-0.424,0.94,0.459c0.361,0.53,3.216,4.714,5.447,7.986
			c-0.012-0.018-5.262,3.228-8.14,7.114c0,0-0.01,0.022,0.013,0.032c-0.024-0.009-0.05-0.007-0.05-0.007s-1.296,1.7-0.385,3.457
			c1.391,2.67,4.629,2.514,6.651,1.522c4.914-2.402,7.064-4.57,7.064-4.57l15.188,22.256h107.988
			c0.045-0.037,0.09-0.073,0.135-0.111v-56.555L201.844,78.149z"/>
		<g id="XMLID_3_">
			<g>
				<path fill="#19BEBE" d="M205.324,69.875c-0.324,0.6-0.71,1.175-1.212,1.625c-2.226,1.962-4.713,3.062-4.713,3.062
					s-0.101-0.15-0.276-0.4c0-0.025,0.164-0.137,0.201-0.188C202.476,70.513,204.988,69.938,205.324,69.875z"/>
			</g>
		</g>
		<g id="XMLID_2_">
			<g>
				<path fill="#19BEBE" d="M94.8,146.088c-0.587,0.299-1.275,0.475-1.938,0.537l0.05-0.025c0,0,1.25-2.264,6.038-4.124
					c0.188,0.274,0.3,0.437,0.3,0.437S97.45,144.737,94.8,146.088z"/>
			</g>
		</g>
	</g>
	<g>
		<g enable-background="new    ">
			<path fill="#FFFFFF" d="M-2.834,94.414l3.252-2.246c2.861,4.142,5.459,6.952,8.755,4.676c2.584-1.785,2.769-4.279,0.984-6.862
				c-1.631-2.362-5.528-2.959-8.477-3.225l0.077,0.013c-4.462-0.076-10.291-1.183-13.12-5.279
				c-2.861-4.143-2.449-9.164,1.872-12.148c6.014-4.152,9.744-0.084,13.62,5.528l-3.252,2.245c-2.4-3.475-4.959-6.706-8.123-4.522
				c-2.45,1.692-2.344,4.515-0.713,6.872c1.692,2.451,5.513,2.84,9.394,3.317l-0.031-0.046c4.679,0.584,9.42,1.258,11.973,4.954
				c3.262,4.722,2.853,9.082-1.958,12.405C5.851,103.94,1.903,101.271-2.834,94.414z M12.174,88.521
				c-4.491-6.501-17.196-2.135-21.38-8.193c-2.091-3.027-2.152-6.736,1.099-8.982c4.321-2.983,7.234,0.664,9.402,3.707l0.757-0.523
				c-3.199-4.632-6.257-7.061-10.712-3.984c-3.563,2.461-3.824,6.655-1.456,10.085c2.491,3.606,7.808,4.541,11.953,4.638
				l-0.044,0.03c3.292,0.292,7.89,1.327,9.612,3.822c2.337,3.385,2.061,6.603-1.37,8.971c-4.409,3.046-7.866-0.816-9.957-3.845
				l-0.848,0.584c3.384,4.898,6.829,7.124,11.327,4.018C14.565,96.079,14.912,92.485,12.174,88.521z"/>
			<path fill="#FFFFFF" d="M23.658,91.248l-3.25,2.246L-0.326,63.472l2.718-1.876l21.737,14.33L10.409,56.059l3.25-2.246
				l20.734,30.021l-2.718,1.877c-4.627-2.986-10.002-6.578-21.735-14.328L23.658,91.248z M31.616,83.908l0.668-0.461l-19.04-27.569
				l-0.758,0.523l17.288,25.032L2.421,63.354l-0.713,0.492l19.04,27.57l0.846-0.585L4.308,65.798
				C13.476,71.835,22.479,77.918,31.616,83.908z"/>
			<path fill="#FFFFFF" d="M35.862,82.82L21.987,48.062l2.584-1.784l27.548,25.314l-3.341,2.307l-7.807-7.304l-5.702,3.937
				l3.932,9.98L35.862,82.82z M33.37,70.067l7.749-5.353l7.821,7.229l0.802-0.553L24.423,48.159l-0.624,0.43l12.715,31.938
				l0.846-0.585L33.37,70.067z M40.388,64.038l-7.394,5.106l-7.469-18.723L40.388,64.038z M33.723,66.865l4.276-2.953l-8.722-8.056
				L33.723,66.865z"/>
			<path fill="#FFFFFF" d="M47.201,62.951l-9.506-13.764c-3.291-4.766-3.542-9.986,1.625-13.555
				c5.968-4.122,9.826-1.392,14.595,5.511l-3.296,2.276c-2.554-3.696-5.223-7.182-9.053-4.536c-2.941,2.03-2.482,5.267-0.575,8.028
				l9.506,13.763c1.906,2.762,4.756,4.412,7.695,2.381c3.519-2.43,1.87-5.962-1.022-10.148l3.297-2.276
				c3.875,5.612,6.621,11.017-0.06,15.63C55.24,69.832,50.492,67.717,47.201,62.951z M60.081,52.74l-0.801,0.554
				c2.522,3.652,4.243,7.858-0.256,10.965c-3.785,2.615-7.437,0.663-9.774-2.722l-9.505-13.763
				c-2.337-3.385-2.826-7.522,0.96-10.137c4.499-3.107,7.748-0.021,10.301,3.676l0.802-0.554c-3.414-4.944-7.26-6.893-11.625-3.878
				c-4.32,2.984-4.038,7.393-1.239,11.446l9.504,13.764c2.799,4.053,6.811,5.955,11.13,2.971
				C64.61,61.584,63.033,57.016,60.081,52.74z"/>
			<path fill="#FFFFFF" d="M64.604,39.288l19.625,10.129l-3.785,2.615l-15.6-8.107l0.095,1.184l8.244,11.938l-3.251,2.246
				L49.167,29.227l3.252-2.245l8.213,11.892l-1.665-16.414l3.875-2.676L64.604,39.288z M60.541,23.215l1.996,20.987L52.079,29.059
				l-0.848,0.585l19.041,27.569l0.846-0.584l-7.598-11.001l-0.248-4.17l17.065,8.804l0.936-0.646l-18.083-9.417l-1.67-17.66
				L60.541,23.215z"/>
			<path fill="#FFFFFF" d="M76.617,39.543l3.252-2.246c2.861,4.142,5.459,6.952,8.755,4.675c2.584-1.784,2.769-4.278,0.984-6.861
				c-1.631-2.362-5.529-2.958-8.477-3.226l0.075,0.015c-4.46-0.077-10.289-1.183-13.119-5.28c-2.861-4.143-2.449-9.165,1.873-12.148
				C75.974,10.32,79.705,14.387,83.58,20l-3.252,2.246c-2.399-3.476-4.959-6.707-8.122-4.523c-2.45,1.692-2.344,4.514-0.713,6.873
				c1.691,2.45,5.513,2.839,9.393,3.317l-0.031-0.045c4.679,0.584,9.42,1.258,11.973,4.954c3.262,4.722,2.853,9.082-1.958,12.404
				C85.303,49.07,81.355,46.402,76.617,39.543z M91.626,33.651c-4.491-6.503-17.196-2.135-21.381-8.193
				c-2.091-3.027-2.152-6.737,1.099-8.983c4.321-2.983,7.234,0.664,9.402,3.707l0.757-0.523c-3.2-4.632-6.258-7.06-10.712-3.984
				c-3.563,2.461-3.824,6.655-1.456,10.085c2.491,3.606,7.808,4.541,11.953,4.638l-0.044,0.031c3.292,0.291,7.888,1.327,9.611,3.822
				c2.338,3.385,2.061,6.602-1.369,8.97c-4.409,3.045-7.866-0.816-9.958-3.845l-0.847,0.584c3.384,4.898,6.829,7.125,11.327,4.017
				C94.018,41.209,94.364,37.616,91.626,33.651z"/>
		</g>
	</g>
	<g>
		<g enable-background="new    ">
			<path fill="#FFFFFF" d="M107.346,23.803c-1.862-2.697-1.014-6.468-0.177-9.331c-2.819-1.238-5.44-2.879-7.229-5.469
				c-1.789-2.588-1.547-5.623,1.187-7.511c3.415-2.358,5.778-0.167,7.566,2.423c1.764,2.552,2.529,5.739,2.229,8.763
				c2.699,1.216,3.296,1.388,6.262,2.685c-0.74-1.612-1.809-3.158-3.025-4.92l2.659-1.837c1.863,2.696,3.877,5.767,4.443,8.509
				l0.342,0.188l4.961,2.415l-2.876,1.987l-2.502-1.086c-0.402,2.188-1.597,3.917-3.646,5.333
				C113.979,28.409,109.68,27.183,107.346,23.803z M120.174,18.77l3.359,1.557l0.682-0.473l-3.127-1.453l0.036-0.025l-0.978-0.491
				c-0.398-2.807-2.05-5.277-3.664-7.613l-0.647,0.446c1.515,2.192,2.855,4.135,3.373,6.805l-9.669-4.157
				c0.617-3.029-0.028-6.193-1.816-8.782c-1.465-2.122-3.338-3.91-5.926-2.122c-2.122,1.465-2.275,3.856-0.887,5.869
				c1.789,2.59,4.871,4.285,7.728,5.499c-0.84,2.704-1.998,6.796-0.284,9.276c1.961,2.84,5.543,3.874,8.491,1.838
				C119.002,23.455,120.119,21.46,120.174,18.77z M102.294,3.182c2.085-1.439,3.528,0.114,4.746,1.875
				c1.688,2.445,2.216,5.054,1.743,7.984c-2.723-1.096-5.477-2.699-7.189-5.181C100.452,6.207,100.604,4.35,102.294,3.182z
				 M107.748,11.312c0.088-2.026-0.438-3.788-1.68-5.585c-0.869-1.259-1.918-2.393-3.104-1.574c-1.042,0.72-1.168,1.923-0.399,3.037
				C103.832,9.024,105.695,10.339,107.748,11.312z M116.396,24.297c-2.553,1.763-5.757,0.738-7.421-1.672
				c-1.415-2.049-0.454-6.271,0.322-8.453l10.093,4.234C119.54,20.852,118.41,22.906,116.396,24.297z M110.039,15.784
				c-0.525,2.007-0.951,4.852-0.058,6.146c1.292,1.87,3.804,2.738,5.745,1.397c1.439-0.993,2.335-2.462,2.453-4.137L110.039,15.784z
				"/>
		</g>
	</g>
	<g>
		<g enable-background="new    ">
			<path fill="#FFFFFF" d="M60.944,116.469l-11.85-29.687l2.207-1.523L74.83,106.88l-2.853,1.97l-6.669-6.24l-4.869,3.365
				l3.359,8.523L60.944,116.469z M58.816,105.577l6.62-4.571l6.681,6.174l0.685-0.473L51.174,86.863l-0.532,0.367l10.86,27.279
				l0.723-0.498L58.816,105.577z M64.812,100.426l-6.316,4.361l-6.379-15.99L64.812,100.426z M59.118,102.84l3.652-2.522
				l-7.449-6.88L59.118,102.84z"/>
			<path fill="#FFFFFF" d="M78.942,104.039l-2.777,1.918l-17.708-25.64l5.136-3.548c4.603-3.179,8.426-1.548,11.315,2.637
				c4.52,6.543,1.34,9.749-3.795,13.297L78.942,104.039z M73.881,80.115c-2.443-3.538-5.737-4.973-9.58-2.318l-4.07,2.811
				l16.263,23.549l0.646-0.446l-7.829-11.336C74.371,88.879,78.269,86.467,73.881,80.115z M64.421,78.783
				c3.614-2.496,6.346-1.633,8.737,1.832c2.469,3.574,2.262,6.528-1.428,9.076l-2.892,1.997l-7.461-10.804L64.421,78.783z
				 M69.168,89.888l1.826-1.261c2.968-2.05,3.134-4.413,1.137-7.304c-1.917-2.778-4.11-3.511-7.001-1.514l-1.979,1.366
				L69.168,89.888z"/>
			<path fill="#FFFFFF" d="M91.993,95.027l-2.777,1.917L71.508,71.304l5.135-3.547c4.604-3.179,8.427-1.548,11.316,2.637
				c4.519,6.542,1.34,9.75-3.796,13.296L91.993,95.027z M86.933,71.103c-2.443-3.538-5.737-4.973-9.58-2.319l-4.071,2.811
				l16.263,23.548l0.646-0.446L82.363,83.36C87.422,79.867,91.32,77.455,86.933,71.103z M77.473,69.77
				c3.614-2.496,6.346-1.631,8.737,1.832c2.469,3.575,2.261,6.528-1.429,9.077l-2.891,1.996l-7.461-10.804L77.473,69.77z
				 M82.22,80.874l1.826-1.26c2.967-2.05,3.133-4.413,1.137-7.304c-1.918-2.778-4.11-3.511-7.001-1.514l-1.978,1.366L82.22,80.874z"
				/>
			<path fill="#FFFFFF" d="M89.151,63.164l6.044,8.75l5.021-3.468l1.918,2.777l-5.021,3.468l5.937,8.598l7.533-5.203l1.918,2.778
				l-10.233,7.066L84.521,62.317l10.271-7.094l1.892,2.739L89.151,63.164z M94.437,56.985l-8.179,5.649l16.301,23.522l8.141-5.623
				l-0.445-0.646l-7.495,5.176L95.35,74.335l5.021-3.468l-0.447-0.647l-5.021,3.468l-7.488-10.841l7.495-5.176L94.437,56.985z"/>
			<path fill="#FFFFFF" d="M108.937,49.501l-4.261,2.941l15.791,22.864l-2.777,1.918l-15.79-22.864l-4.262,2.943l-1.917-2.778
				l11.3-7.803L108.937,49.501z M97.521,54.855l0.473,0.686l4.223-2.917l15.789,22.863l0.724-0.5l-15.79-22.862l4.26-2.942
				l-0.472-0.687L97.521,54.855z"/>
			<path fill="#FFFFFF" d="M126.582,71.139l-17.707-25.641l2.775-1.918l17.709,25.641L126.582,71.139z M111.333,45.316l-0.723,0.499
				l16.263,23.549l0.723-0.5L111.333,45.316z"/>
			<path fill="#FFFFFF" d="M133.11,62.529l8.56-5.912l1.919,2.777l-11.87,8.197l-1.498-2.168l-5.847-26.528l-7.914,5.465
				l-1.917-2.777l11.185-7.725l1.472,2.13L133.11,62.529z M126.015,36.47l-0.604-0.875l-9.092,6.279l0.499,0.724l8.37-5.78
				l0.025,0.037l6.193,28.088l0.604,0.874l9.777-6.752l-0.473-0.684l-9.018,6.227l-0.051-0.077L126.015,36.47z"/>
			<path fill="#FFFFFF" d="M132.301,33.365l6.044,8.75l5.022-3.468l1.916,2.777l-5.021,3.468l5.938,8.597l7.533-5.202l1.918,2.777
				l-10.232,7.067l-17.747-25.615l10.271-7.093l1.893,2.739L132.301,33.365z M137.586,27.186l-8.18,5.649l16.302,23.522l8.142-5.623
				l-0.446-0.646l-7.495,5.176l-7.41-10.729l5.022-3.468l-0.446-0.647l-5.022,3.468l-7.487-10.841l7.494-5.176L137.586,27.186z"/>
			<path fill="#FFFFFF" d="M158.25,30.334c1.94,0.29,3.674,1.901,4.855,3.613l5.596,8.103l-2.775,1.918l-5.518-7.99
				c-1.63-2.358-3.112-2.795-5.508-1.14l-2.626,1.812l7.829,11.337l-2.777,1.918l-17.707-25.641l5.479-3.783
				c4.907-3.39,8.071-1.248,11.014,3.013C157.451,25.435,158.687,27.955,158.25,30.334z M145.806,21.509l-4.45,3.074l16.262,23.549
				l0.723-0.5l-7.827-11.335l3.651-2.522c3.195-2.207,5.143-1.586,7.271,1.495l4.781,6.924l0.723-0.499l-4.86-7.037
				c-1.393-2.017-3.332-3.768-5.982-2.723c1.985-2.496,0.526-5.421-1.049-7.704C152.551,20.617,149.839,18.725,145.806,21.509z
				 M150.039,35.611l-7.461-10.803l3.576-2.47c3.729-2.575,5.974-0.868,8.207,2.365c2.496,3.615,2.753,6.021-1.09,8.675
				L150.039,35.611z M153.296,25.439c-1.812-2.625-3.58-4.045-6.433-2.075l-2.549,1.76l6.016,8.712l2.207-1.523
				C155.542,30.237,155.293,28.331,153.296,25.439z"/>
			<path fill="#FFFFFF" d="M164.83,31.803l2.777-1.917c2.442,3.538,4.662,5.937,7.479,3.993c2.205-1.524,2.363-3.655,0.84-5.861
				c-1.394-2.017-4.723-2.526-7.24-2.754l0.064,0.011c-3.811-0.066-8.789-1.01-11.206-4.51c-2.444-3.538-2.091-7.827,1.599-10.376
				c5.137-3.547,8.323-0.071,11.634,4.721l-2.778,1.917c-2.049-2.966-4.236-5.727-6.936-3.862c-2.093,1.445-2.002,3.854-0.611,5.871
				c1.445,2.092,4.71,2.423,8.025,2.83l-0.027-0.038c3.997,0.5,8.047,1.074,10.228,4.231c2.783,4.033,2.435,7.758-1.675,10.596
				C172.247,39.939,168.876,37.66,164.83,31.803z M177.648,26.77c-3.835-5.553-14.688-1.824-18.262-6.997
				c-1.787-2.588-1.838-5.754,0.938-7.673c3.691-2.548,6.18,0.567,8.03,3.165l0.647-0.446c-2.732-3.957-5.345-6.03-9.148-3.403
				c-3.045,2.102-3.268,5.684-1.244,8.613c2.128,3.081,6.668,3.879,10.209,3.961l-0.039,0.026c2.813,0.25,6.74,1.134,8.211,3.265
				c1.996,2.892,1.76,5.639-1.17,7.663c-3.766,2.601-6.719-0.698-8.506-3.285l-0.723,0.499c2.891,4.185,5.832,6.086,9.676,3.433
				C179.691,33.227,179.988,30.156,177.648,26.77z"/>
		</g>
	</g>
</g>
</svg>
