<?xml version="1.0" encoding="utf-8"?>
<!-- Generator: Adobe Illustrator 16.0.4, SVG Export Plug-In . SVG Version: 6.00 Build 0)  -->
<!DOCTYPE svg PUBLIC "-//W3C//DTD SVG 1.1//EN" "http://www.w3.org/Graphics/SVG/1.1/DTD/svg11.dtd">
<svg version="1.1" id="Layer_1" xmlns="http://www.w3.org/2000/svg" xmlns:xlink="http://www.w3.org/1999/xlink" x="0px" y="0px"
	 width="250px" height="187.5px" viewBox="-25 -18.75 250 187.5" enable-background="new -25 -18.75 250 187.5"
	 xml:space="preserve">
<g>
	<g>
		<path d="M-4.817,38.667c0.902,0.488,1.846,0.86,2.853,0.987c4.499,0.573,8.215-0.182,8.215-0.182s0-0.298,0-0.81
			C-1.11,36.921-4.685,38.603-4.817,38.667z"/>
		<path fill="#FBB333" d="M225-18.75H-25v187.5H6.25c0-15.236,0-39.217,0-39.217V46.107c0,0-4.46,0.885-12.745-0.314
			c-3.407-0.492-7.512-3.087-6.964-7.663c0.346-2.889,3.208-3.952,3.428-4.029c-0.001-0.002-0.008-0.008-0.008-0.008
			c6.989-2.43,16.289-2,16.289-1.971c0-6.061,0-13.813,0-14.792c0-1.636-0.651-1.393-0.651-1.393
			c-1.775-0.208-1.729-1.114-1.729-2.922c0-1.812,1.739-1.254,1.599-1.812c0,0,29.668,7.836,94.061,7.836
			c62.524,0,94.057-7.836,94.057-7.836c-0.139,0.557,1.582,0,1.582,1.812c0,1.81-0.076,2.715-1.853,2.922
			c0,0-0.814-0.243-0.814,1.393c0,0.995,0,8.968,0,15.065c0-0.17,0.203-0.271,0.203-0.271s9.157-0.535,16.36,1.97
			c0,0,3.104,1.034,3.463,4.038c0.548,4.575-3.715,7.17-7.122,7.663c-8.284,1.197-12.905,0.312-12.905,0.312v83.426
			c0,0,0,23.98,0,39.217H225V-18.75z"/>
		<path d="M200.879,39.654c1.023-0.13,2.014-0.51,2.938-1.006c-0.477-0.209-4.153-1.644-11.113,0.025
			c-0.086,0.02-0.203,0.033-0.203,0.05c0,0.474,0,0.75,0,0.75S196.382,40.227,200.879,39.654z"/>
		<path fill="#FBB333" d="M-10.01,34.094c0,0-0.013,0.003-0.022,0.008c0.008,0.004,0.031,0.015,0.044,0.042
			C-10.01,34.115-10.01,34.094-10.01,34.094z"/>
		<path fill="#F46F22" d="M5.474,11.204c0,0,105.537-14.02,188.329,0c0,0-44.449,12.675-94.164,12.675
			C99.639,23.879,24.505,30.235,5.474,11.204z"/>
		<path fill="#19BEBE" d="M192.5,46.107c0,0,4.621,0.885,12.902-0.314c3.408-0.492,7.672-3.087,7.122-7.663
			c-0.358-3.003-3.462-4.037-3.462-4.037c-7.205-2.505-16.361-1.97-16.361-1.97s-0.201,0.101-0.201,0.271c0-6.096,0-14.069,0-15.065
			c0-1.636,0.815-1.393,0.815-1.393c1.774-0.209,1.852-1.114,1.852-2.922c0-1.812-1.721-1.253-1.582-1.812
			c0,0-31.534,7.836-94.058,7.836c-64.393,0-94.061-7.836-94.061-7.836c0.14,0.557-1.599,0-1.599,1.812
			c0,1.81-0.044,2.715,1.73,2.922c0,0,0.651-0.244,0.651,1.393c0,0.98,0,8.732,0,14.791c0-0.027-9.3-0.458-16.289,1.971
			c0,0,0.006,0.006,0.008,0.007c0.01-0.003,0.022-0.007,0.022-0.007s0,0.021,0.023,0.051c-0.014-0.027-0.036-0.038-0.045-0.042
			c-0.22,0.077-3.082,1.141-3.428,4.029c-0.547,4.575,3.559,7.171,6.964,7.663C1.79,46.992,6.25,46.107,6.25,46.107v83.426
			c0,0,0,23.98,0,39.217H192.5c0-15.236,0-39.217,0-39.217V46.107z"/>
		<g id="XMLID_5_">
			<g>
				<path fill="#FBB333" d="M203.812,38.65c-0.924,0.488-1.913,0.875-2.938,1c-4.488,0.575-8.375-0.175-8.375-0.175s0-0.275,0-0.75
					c0-0.025,0.112-0.038,0.2-0.05C199.663,37,203.338,38.438,203.812,38.65z"/>
			</g>
		</g>
		<g id="XMLID_4_">
			<g>
				<path fill="#FBB333" d="M6.25,38.663c0,0.512,0,0.812,0,0.812s-3.713,0.75-8.212,0.175c-0.975-0.125-1.875-0.476-2.737-0.938
					C-4.05,38.462-0.488,37.075,6.25,38.663z"/>
				<path fill="#FBB333" d="M-4.812,38.663c0.038,0.012,0.062,0.038,0.1,0.05c-0.05,0.025-0.087,0.037-0.1,0.037c0,0,0,0-0.012,0
					c0-0.012,0-0.025,0-0.037C-4.825,38.713-4.825,38.663-4.812,38.663z"/>
			</g>
		</g>
		<path fill="#FBB333" d="M-4.829,38.672c0,0,0.01-0.005,0.012-0.006l-0.002-0.001C-4.809,38.667-4.839,38.67-4.829,38.672z"/>
	</g>
	<g>
		<g enable-background="new    ">
			<path fill="#FFFFFF" d="M50.72,95.971V45.793h4.839l9.306,36.33l9.38-36.33h4.839v50.178h-5.435V70.063l-6.477,25.908H62.78
				l-6.551-25.536v25.536H50.72z M54.145,54.131l10.199,39.754h1.266l10.05-39.829v39.829h1.415V47.803h-1.266L64.865,90.462
				L53.996,47.803h-1.191v46.083h1.34V54.131z"/>
			<path fill="#FFFFFF" d="M81.762,95.971l11.465-50.178h4.318l11.391,50.178h-5.584l-3.126-14.368h-9.529l-3.35,14.368H81.762z
				 M88.909,79.592h12.954l3.201,14.294h1.34L95.907,47.803h-1.042L84.293,93.886h1.415L88.909,79.592z M101.565,78.252H89.207
				l6.179-27.024L101.565,78.252z M91.812,76.242h7.147L95.386,60.31L91.812,76.242z"/>
			<path fill="#FFFFFF" d="M112.434,95.971V45.793h5.435v50.178H112.434z M115.857,47.803h-1.414v46.083h1.414V47.803z"/>
			<path fill="#FFFFFF" d="M128.289,95.971h-5.435V45.793h4.541l13.4,33.204V45.793h5.435v50.178h-4.541
				c-2.903-6.998-6.179-15.262-13.4-33.204V95.971z M143.029,93.886h1.117V47.803h-1.266v41.839l-16.825-41.839h-1.191v46.083h1.414
				V52.046C131.937,66.043,137.371,79.965,143.029,93.886z"/>
		</g>
	</g>
	<g>
		<g enable-background="new    ">
			<path fill="#FFFFFF" d="M50.936,142.712v-36.469h7.792c6.601,0,9.036,4.545,9.036,10.389v15.691
				c0,5.897-2.381,10.389-9.036,10.389H50.936z M66.249,132.323v-15.691c0-4.978-2.002-8.928-7.521-8.928h-6.276v33.493h6.276
				C64.301,141.197,66.249,137.409,66.249,132.323z M53.371,108.678h4.978c5.14,0,6.979,3.571,6.979,8.225v15.15
				c0,4.653-1.839,8.225-6.979,8.225h-4.978V108.678z M58.349,138.762c4.058,0,5.465-2.922,5.465-6.709v-15.15
				c0-3.787-1.407-6.764-5.465-6.764h-3.463v28.623H58.349z"/>
			<path fill="#FFFFFF" d="M71.548,142.712v-36.469h3.95v36.469H71.548z M74.037,107.704h-1.028v33.493h1.028V107.704z"/>
			<path fill="#FFFFFF" d="M78.094,130.268h3.95c0,5.031,0.541,8.819,4.545,8.819c3.138,0,4.708-1.948,4.708-5.086
				c0-2.868-2.868-5.573-5.14-7.467l0.054,0.054c-3.625-2.598-7.792-6.817-7.792-11.796c0-5.031,3.192-8.928,8.441-8.928
				c7.305,0,8.062,5.465,8.062,12.283h-3.95c0-4.221-0.271-8.333-4.112-8.333c-2.976,0-4.491,2.381-4.491,5.248
				c0,2.977,2.921,5.465,5.843,8.062v-0.054c3.517,3.138,7.034,6.384,7.034,10.875c0,5.735-2.813,9.09-8.657,9.09
				C79.825,143.036,78.094,138.6,78.094,130.268z M93.785,133.946c0-7.899-12.932-11.524-12.932-18.884
				c0-3.679,2.056-6.763,6.006-6.763c5.249,0,5.573,4.653,5.627,8.387h0.919c0-5.628-1.136-9.361-6.547-9.361
				c-4.329,0-6.926,3.301-6.926,7.467c0,4.383,3.842,8.171,7.196,10.605h-0.054c2.543,2.11,5.735,5.573,5.735,8.604
				c0,4.111-2.056,6.601-6.222,6.601c-5.356,0-6.006-5.14-6.006-8.819h-1.028c0,5.952,1.569,9.739,7.034,9.739
				C91.458,141.521,93.785,138.762,93.785,133.946z"/>
			<path fill="#FFFFFF" d="M113.478,106.243v36.469h-3.949v-16.124h-8.495v16.124h-3.95v-36.469h3.95v16.395h8.495v-16.395H113.478z
				 M110.989,124.153H99.518v-16.449h-0.92v33.493h0.92v-16.124h11.471v16.124h1.027v-33.493h-1.027V124.153z"/>
			<path fill="#FFFFFF" d="M119.752,110.139v12.445h7.143v3.95h-7.143v12.228h10.713v3.95H115.91l-0.054-36.469h14.608v3.896
				H119.752z M128.95,107.704h-11.633l0.054,33.493h11.579v-0.92h-10.659v-15.259h7.143v-0.92h-7.143v-15.421h10.659V107.704z"/>
			<path fill="#FFFFFF" d="M130.409,130.268h3.95c0,5.031,0.541,8.819,4.545,8.819c3.139,0,4.707-1.948,4.707-5.086
				c0-2.868-2.867-5.573-5.14-7.467l0.054,0.054c-3.625-2.598-7.791-6.817-7.791-11.796c0-5.031,3.192-8.928,8.44-8.928
				c7.305,0,8.062,5.465,8.062,12.283h-3.95c0-4.221-0.271-8.333-4.112-8.333c-2.976,0-4.491,2.381-4.491,5.248
				c0,2.977,2.922,5.465,5.844,8.062v-0.054c3.518,3.138,7.034,6.384,7.034,10.875c0,5.735-2.813,9.09-8.657,9.09
				C132.141,143.036,130.409,138.6,130.409,130.268z M146.101,133.946c0-7.899-12.932-11.524-12.932-18.884
				c0-3.679,2.056-6.763,6.006-6.763c5.248,0,5.573,4.653,5.627,8.387h0.92c0-5.628-1.136-9.361-6.547-9.361
				c-4.328,0-6.926,3.301-6.926,7.467c0,4.383,3.842,8.171,7.196,10.605h-0.054c2.543,2.11,5.735,5.573,5.735,8.604
				c0,4.111-2.057,6.601-6.223,6.601c-5.356,0-6.006-5.14-6.006-8.819h-1.028c0,5.952,1.569,9.739,7.034,9.739
				C143.774,141.521,146.101,138.762,146.101,133.946z"/>
		</g>
	</g>
</g>
</svg>
