<?xml version="1.0" encoding="utf-8"?>
<!-- Generator: Adobe Illustrator 16.0.4, SVG Export Plug-In . SVG Version: 6.00 Build 0)  -->
<!DOCTYPE svg PUBLIC "-//W3C//DTD SVG 1.1//EN" "http://www.w3.org/Graphics/SVG/1.1/DTD/svg11.dtd">
<svg version="1.1" id="Layer_1" xmlns="http://www.w3.org/2000/svg" xmlns:xlink="http://www.w3.org/1999/xlink" x="0px" y="0px"
	 width="250px" height="187.5px" viewBox="-25 -18.75 250 187.5" enable-background="new -25 -18.75 250 187.5"
	 xml:space="preserve">
<g>
	<g>
		<path fill="#FBB333" d="M-5.29,11.062c-0.007-0.009-0.017-0.019-0.026-0.028c0.554,1.056,1.25,2.047,2.139,2.824
			c3.965,3.472,8.093,5.19,8.093,5.19s0.192-0.288,0.525-0.781C-0.588,11.728-5.29,11.062-5.29,11.062z"/>
		<path fill="#FBB333" d="M225-18.75H-25v82.265L0.61,25.447c0,0-4.925-2.076-12.136-8.604c-2.965-2.685-5.29-7.885-1.796-11.941
			c2.295-2.664,5.952-1.651,5.952-1.651s0.001,0.03,0.003,0.074c0.005-0.043,0.009-0.067,0.009-0.067
			c8.316,2.191,16.558,8.339,17.042,8.704c3.931-5.842,8.96-13.317,9.596-14.262C20.341-3.881,19.5-4.105,19.5-4.105
			c-1.578-1.35-1.001-2.232,0.172-3.976c1.175-1.746,2.49-0.083,2.716-0.71c0,0,23.525,26.802,85.617,68.576
			c60.29,40.56,95.775,53.46,95.775,53.46c-0.495,0.446,1.52,1.019,0.342,2.767c-1.174,1.744-1.85,2.556-3.698,1.604
			c0,0-0.659-0.785-1.723,0.793c-0.646,0.962-5.816,8.647-9.771,14.526c0.249-0.069,0.401-0.108,0.401-0.108
			s9.212,5.447,14.533,12.535c0,0,2.32,3.01,0.719,6.141c-2.439,4.766-8.266,4.48-11.871,2.746
			c-8.766-4.219-12.679-8.092-12.679-8.092l-15.199,22.594H225V-18.75z"/>
		<path fill="#FBB333" d="M195.818,146.326c-0.325-0.511-2.939-4.28-10.732-7.188c-0.095-0.032-0.172-0.068-0.26-0.104
			c-0.307,0.455-0.485,0.723-0.485,0.723s3.286,3.269,7.993,5.633C193.406,145.928,194.607,146.205,195.818,146.326z"/>
		<path fill="#F46F22" d="M22.396-8.787c0,0,110.863,54.945,181.603,122.175c0,0-51.084-16.612-99.026-48.864
			C104.973,64.524,28.401,21.909,22.396-8.787z"/>
		<path fill="#19BEBE" d="M192.714,154.246c3.604,1.735,9.433,2.019,11.871-2.746c1.602-3.131-0.719-6.14-0.719-6.14
			c-5.321-7.088-14.532-12.536-14.532-12.536s-0.152,0.039-0.403,0.11c3.955-5.879,9.128-13.567,9.772-14.526
			c1.062-1.58,1.723-0.795,1.723-0.795c1.848,0.953,2.525,0.141,3.699-1.605c1.176-1.745-0.838-2.317-0.344-2.766
			c0,0-35.485-12.898-95.773-53.459C45.914,18.009,22.389-8.793,22.389-8.793c-0.226,0.628-1.541-1.037-2.716,0.711
			c-1.174,1.744-1.749,2.625-0.172,3.976c0,0,0.841,0.225-0.222,1.804c-0.636,0.945-5.665,8.42-9.596,14.262
			C9.199,11.595,0.958,5.447-7.359,3.256c0,0-0.002,0.024-0.009,0.066C-7.37,3.28-7.371,3.249-7.371,3.249s-3.656-1.013-5.952,1.651
			c-3.495,4.056-1.169,9.255,1.796,11.941C-4.315,23.37,0.61,25.446,0.61,25.446L-25,63.515V168.75h189.835l15.199-22.594
			C180.034,146.156,183.949,150.027,192.714,154.246z M184.826,139.035c0.088,0.035,0.165,0.071,0.26,0.104
			c7.793,2.907,10.407,6.677,10.732,7.188c-1.214-0.121-2.412-0.397-3.484-0.936c-4.707-2.364-7.993-5.633-7.993-5.633
			S184.52,139.49,184.826,139.035z M4.915,19.047c0,0-4.128-1.719-8.093-5.19c-0.889-0.777-1.585-1.769-2.139-2.825
			c0.01,0.011,0.018,0.021,0.026,0.029c0,0,4.702,0.665,10.731,7.205C5.107,18.76,4.915,19.047,4.915,19.047z"/>
	</g>
	<g>
		<g enable-background="new    ">
			<path fill="#FFFFFF" d="M14.022,104.228v48.247H8.797v-21.332H-2.442v21.332h-5.225v-48.247h5.225v21.689H8.797v-21.689H14.022z
				 M10.729,127.921H-4.446v-21.76h-1.217v44.309h1.217v-21.331h15.175v21.331h1.36v-44.309h-1.36V127.921z"/>
			<path fill="#FFFFFF" d="M22.325,109.381v16.465h9.449v5.225h-9.449v16.178h14.173v5.227H17.242l-0.071-48.247h19.327v5.153
				H22.325z M34.494,106.161H19.104l0.071,44.309h15.319v-1.217H20.392v-20.186h9.449v-1.217h-9.449v-20.401h14.103V106.161z"/>
			<path fill="#FFFFFF" d="M39.433,152.475l11.023-48.247h4.152l10.952,48.247h-5.369l-3.006-13.816h-9.163l-3.221,13.816H39.433z
				 M46.305,136.727H58.76l3.078,13.743h1.289l-10.094-44.309h-1.002L41.866,150.47h1.361L46.305,136.727z M58.474,135.438H46.591
				l5.941-25.985L58.474,135.438z M49.097,133.505h6.872l-3.437-15.319L49.097,133.505z"/>
			<path fill="#FFFFFF" d="M68.209,152.475v-48.247h5.154v43.021h10.952v5.227H68.209z M82.383,149.253H71.431v-43.092h-1.289
				v44.309h12.241V149.253z"/>
			<path fill="#FFFFFF" d="M100.707,109.381h-8.018v43.021h-5.226v-43.021h-8.018v-5.225h21.261V109.381z M81.451,106.161v1.288
				h7.946v43.021h1.36v-43.021h8.017v-1.288H81.451z"/>
			<path fill="#FFFFFF" d="M125.546,104.228v48.247h-5.226v-21.332h-11.238v21.332h-5.226v-48.247h5.226v21.689h11.238v-21.689
				H125.546z M122.254,127.921h-15.176v-21.76h-1.218v44.309h1.218v-21.331h15.176v21.331h1.359v-44.309h-1.359V127.921z"/>
			<path fill="#FFFFFF" d="M152.531,104.228l-10.021,26.271v21.977h-5.297v-21.977c-5.583-14.674-8.305-21.904-9.879-26.271h5.584
				l7.015,18.469c2.362-6.157,4.867-12.599,7.016-18.469H152.531z M139.933,128.351l-8.375-22.189h-1.36
				c2.863,8.088,6.014,15.962,9.02,23.979v20.329h1.36v-20.329l9.091-23.979h-1.359L139.933,128.351z"/>
		</g>
	</g>
</g>
</svg>
