<?xml version="1.0" encoding="utf-8"?>
<!-- Generator: Adobe Illustrator 16.0.4, SVG Export Plug-In . SVG Version: 6.00 Build 0)  -->
<!DOCTYPE svg PUBLIC "-//W3C//DTD SVG 1.1//EN" "http://www.w3.org/Graphics/SVG/1.1/DTD/svg11.dtd">
<svg version="1.1" id="Layer_1" xmlns="http://www.w3.org/2000/svg" xmlns:xlink="http://www.w3.org/1999/xlink" x="0px" y="0px"
	 width="250px" height="187.5px" viewBox="0 0 250 187.5" enable-background="new 0 0 250 187.5" xml:space="preserve">
<g>
	<g>
		<path fill="#FBB333" d="M99.884,110.209c-0.009-0.003-0.038-0.006-0.049-0.006c0.818,0.441,1.715,0.779,2.63,0.896
			c4.085,0.521,7.535-0.166,7.535-0.166s0-0.27,0-0.733C103.75,108.59,99.884,110.209,99.884,110.209z"/>
		<g>
			<path fill="#FBB333" d="M98.357,116.674c-3.093-0.445-6.89-2.802-6.394-6.955c0.328-2.728,3.143-3.666,3.143-3.666
				s0.02,0.021,0.039,0.045c-0.015-0.027-0.01-0.045-0.01-0.045c6.345-2.207,14.865-1.814,14.865-1.789c0-5.503,0-12.54,0-13.43
				c0-1.485-0.669-1.266-0.669-1.266c-1.611-0.188-1.65-1.011-1.65-2.653c0-1.644,1.577-1.139,1.45-1.644
				c0,0,26.93,7.114,85.389,7.114c23.215,0,41.713-1.19,55.48-2.596V0H0v187.5h110v-70.542
				C110,116.958,105.879,117.762,98.357,116.674z"/>
			<path fill="#19BEBE" d="M165,80.569V0H0v187.5h165V97.674c-20.669-0.293-46.208-2.752-55.86-12.403
				C109.14,85.271,132.407,82.182,165,80.569z"/>
			<path fill="#F46F22" d="M250,89.789c-13.768,1.406-32.266,2.596-55.48,2.596c-58.459,0-85.39-7.114-85.39-7.114
				c0.126,0.505-1.45,0-1.45,1.644c0,1.643,0.039,2.465,1.65,2.653c0,0,0.669-0.221,0.669,1.266c0,0.89,0,7.927,0,13.43
				c0-0.027-8.52-0.418-14.866,1.789c0,0-0.005,0.018,0.01,0.045c-0.02-0.024-0.039-0.045-0.039-0.045s-2.815,0.938-3.143,3.666
				c-0.495,4.153,3.303,6.51,6.394,6.955c7.524,1.088,11.645,0.284,11.645,0.284V187.5h140V89.789z M110,110.934
				c0,0-3.45,0.688-7.534,0.166c-0.915-0.117-1.812-0.455-2.63-0.896c0.011,0,0.04,0.003,0.049,0.006c0,0,3.866-1.619,10.116-0.01
				C110,110.664,110,110.934,110,110.934z"/>
			<path fill="#19BEBE" d="M165,80.569v17.105c16.335,0.229,29.629-0.896,29.629-0.896c20.573,0,40.153-2.392,55.371-4.992V81.513
				C220.365,78.965,189.951,79.335,165,80.569z"/>
			<path fill="#FBB333" d="M109.14,85.271c9.652,9.651,35.19,12.11,55.86,12.403V80.569C132.407,82.182,109.14,85.271,109.14,85.271
				z"/>
		</g>
	</g>
	<g enable-background="new    ">
		<path fill="#FFFFFF" d="M24.919,160.155l35.389,8.086v3.098l-35.389,8.243v-3.99l25.203-5.828l-25.203-5.67V160.155z
			 M56.633,169.764l-30.243,6.983v0.997l32.501-7.561v-0.787L26.39,161.94v0.997L56.633,169.764z"/>
		<path fill="#FFFFFF" d="M28.752,153.857h12.076v-6.931h3.833v6.931h11.866v-10.396h3.833v14.124l-35.389,0.053v-14.177h3.78
			V153.857z M26.39,144.932v11.289l32.501-0.053v-11.236h-0.893v10.344H43.191v-6.932h-0.893v6.932H27.334v-10.344H26.39z"/>
		<path fill="#FFFFFF" d="M50.805,143.095H34.476c-5.461,0-9.871-2.782-9.871-8.821c0-6.562,4.567-8.4,11.761-8.4v3.833
			c-4.043,0-7.929,0.683-7.929,4.567c0,3.623,3.099,4.988,6.511,4.988h15.857c3.308,0,6.09-1.47,6.09-4.883
			c0-3.308-2.939-4.83-6.09-4.83h-6.144v5.67h-3.833v-9.503h9.977c5.303,0,9.871,2.678,9.871,8.663
			C60.676,140.417,56.213,143.095,50.805,143.095z M50.805,127.133h-8.506v6.668h0.893v-5.723h7.613
			c3.885,0,7.508,1.996,7.508,6.301c0,4.41-3.465,6.301-7.508,6.301H34.947c-4.2,0-7.98-1.732-7.98-6.406
			c0-4.62,4.043-6.037,8.139-6.037v-0.945c-5.146,0-9.031,1.995-9.031,6.982c0,4.988,3.78,7.352,8.401,7.352h16.329
			c4.62,0,8.453-2.258,8.453-7.246S55.319,127.133,50.805,127.133z"/>
		<path fill="#FFFFFF" d="M28.752,118.84h12.076v-6.93h3.833v6.93h11.866v-10.396h3.833v14.124l-35.389,0.053v-14.177h3.78V118.84z
			 M26.39,109.914v11.289l32.501-0.053v-11.236h-0.893v10.344H43.191v-6.931h-0.893v6.931H27.334v-10.344H26.39z"/>
		<path fill="#FFFFFF" d="M28.752,91.538v5.881h31.556v3.833H28.752v5.881h-3.833V91.538H28.752z M26.39,105.662h0.944v-5.828
			h31.557v-0.998H27.334v-5.88H26.39V105.662z"/>
		<path fill="#FFFFFF" d="M60.36,94.218l-35.389-8.086v-3.045l35.389-8.034v3.938l-10.134,2.205v6.721L60.36,90.28V94.218z
			 M48.81,89.177v-9.136l10.081-2.258v-0.945L26.39,84.242v0.735l32.501,7.456v-0.998L48.81,89.177z M47.864,80.251v8.716
			l-19.06-4.358L47.864,80.251z M46.446,87.129v-5.041l-11.236,2.52L46.446,87.129z"/>
		<path fill="#FFFFFF" d="M42.666,59.829c1.522-1.628,4.147-2.206,6.511-2.206H60.36v3.833H49.334c-3.255,0-4.62,1.103-4.62,4.411
			v3.622H60.36v3.833H24.972v-7.561c0-6.773,4.043-8.349,9.924-8.349C37.573,57.413,40.724,57.886,42.666,59.829z M26.39,65.762
			v6.144h32.501v-0.998H43.243v-5.04c0-4.411,1.838-5.828,6.091-5.828h9.557v-0.998h-9.714c-2.783,0-5.671,0.683-6.405,3.833
			c-1.051-3.466-4.726-3.99-7.876-3.99C29.907,58.884,26.39,60.196,26.39,65.762z M42.299,70.907H27.387v-4.936
			c0-5.146,3.046-6.143,7.509-6.143c4.987,0,7.403,1.312,7.403,6.615V70.907z M34.896,61.299c-3.623,0-6.091,0.735-6.091,4.673
			v3.518h12.023v-3.045C40.828,62.297,38.886,61.299,34.896,61.299z"/>
		<path fill="#FFFFFF" d="M60.36,54.423H24.972V50.59H60.36V54.423z M26.39,52.007v0.998h32.501v-0.998H26.39z"/>
		<path fill="#FFFFFF" d="M60.36,48.805l-35.389-8.086v-3.045l35.389-8.033v3.938l-10.134,2.205v6.721l10.134,2.363V48.805z
			 M48.81,43.765v-9.136l10.081-2.258v-0.945L26.39,38.829v0.735l32.501,7.455v-0.997L48.81,43.765z M47.864,34.839v8.716
			l-19.06-4.358L47.864,34.839z M46.446,41.717v-5.041L35.21,39.196L46.446,41.717z"/>
		<path fill="#FFFFFF" d="M60.36,24.129v3.833H24.972v-3.203l23.417-9.451H24.972v-3.833H60.36v3.203
			c-4.936,2.048-10.764,4.358-23.417,9.451H60.36z M58.891,13.732v-0.787H26.39v0.893h29.508L26.39,25.704v0.84h32.501v-0.998
			H29.382C39.253,21.556,49.071,17.723,58.891,13.732z"/>
	</g>
</g>
</svg>
