<?xml version="1.0" encoding="utf-8"?>
<!-- Generator: Adobe Illustrator 16.0.4, SVG Export Plug-In . SVG Version: 6.00 Build 0)  -->
<!DOCTYPE svg PUBLIC "-//W3C//DTD SVG 1.1//EN" "http://www.w3.org/Graphics/SVG/1.1/DTD/svg11.dtd">
<svg version="1.1" id="Layer_1" xmlns="http://www.w3.org/2000/svg" xmlns:xlink="http://www.w3.org/1999/xlink" x="0px" y="0px"
	 width="250px" height="187.5px" viewBox="-25 -18.75 250 187.5" enable-background="new -25 -18.75 250 187.5"
	 xml:space="preserve">
<g>
	<rect x="-25" y="-18.75" fill="#F46F22" width="250" height="187.5"/>
	<path fill="#19BEBE" d="M20.221,27.683c0,0,90.393-12.009,161.305,0c0,0-38.07,10.857-80.651,10.857
		C100.873,38.539,36.521,43.982,20.221,27.683z"/>
	<g>
		<path fill="none" d="M11.624,51.208c-0.008-0.002-0.117-0.005-0.127-0.006c0.771,0.418,1.672,0.737,2.537,0.847
			c3.853,0.491,7.217-0.155,7.217-0.155s0-0.255,0-0.694C13.75,49.68,11.624,51.208,11.624,51.208z"/>
		<path fill="none" d="M187.381,52.049c0.876-0.113,1.726-0.438,2.514-0.86c-0.407-0.18-3.555-1.409-9.516,0.021
			c-0.074,0.015-0.379,0.025-0.379,0.041c0,0.405,0,0.643,0,0.643S183.527,52.54,187.381,52.049z"/>
		<path fill="#FBB333" d="M180,57.576c0,0,4.162,0.759,11.255-0.267c2.92-0.423,6.774-2.646,6.305-6.562
			c-0.306-2.574-2.964-3.459-2.964-3.459c-6.17-2.146-14.217-1.688-14.217-1.688S180,45.686,180,45.833c0-5.221,0-12.051,0-12.904
			c0-1.401,0.903-1.192,0.903-1.192c1.521-0.178,1.689-0.954,1.689-2.503c0-1.55-1.423-1.074-1.304-1.55
			c0,0-26.982,6.71-80.535,6.71c-55.15,0-80.549-6.71-80.549-6.71c0.118,0.476-1.365,0-1.365,1.55c0,1.549,0.146,2.326,1.668,2.503
			c0,0,0.743-0.208,0.743,1.192c0,0.84,0,7.479,0,12.671c-1.25-0.025-8.147-0.394-14.134,1.689c0,0-0.061,0.015-0.046,0.042
			c-0.02-0.027-0.065-0.042-0.065-0.042s-2.67,0.885-2.976,3.458c-0.47,3.917,3.216,6.14,6.133,6.562
			c7.095,1.025,11.086,0.266,11.086,0.266V93.75H180V57.576z M180,51.251c0-0.016,0.305-0.026,0.379-0.042
			c5.963-1.429,9.108-0.2,9.516-0.021c-0.788,0.424-1.638,0.749-2.514,0.86C183.527,52.54,180,51.893,180,51.893
			S180,51.656,180,51.251z M21.25,51.894c0,0-3.365,0.647-7.216,0.155c-0.865-0.109-1.765-0.429-2.536-0.847
			c0.01,0.001,0.118,0.004,0.127,0.006c0,0,2.126-1.528,9.626-0.008C21.25,51.639,21.25,51.894,21.25,51.894z"/>
		<path fill="#FBB333" d="M180,93.75v35.281c0,0,0,5.365,0,6.618s-0.265,11.071-19.051,14.47
			c-18.65,3.377-50.949,4.969-59.699,4.989V155c0,0-0.398,0-0.408,0c-0.017,0-0.036,0-0.052,0c-0.018,0-0.038,0-0.056,0
			c-0.007,0-0.021,0-0.029,0l0.021,0.073c-8.866-0.022-41.423-1.558-60.073-4.932c-18.786-3.398-19.404-13.239-19.404-14.492
			s0-6.618,0-6.618V93.75H-25v75h250v-75H180z"/>
		<path fill="#19BEBE" d="M21.25,135.649c0,1.253,0.618,11.094,19.402,14.492c18.65,3.374,51.208,4.911,60.072,4.932L100.703,155
			c0.01,0,0.024,0,0.03,0c0.019,0,0.038,0,0.056,0c0.017,0,0.035,0,0.052,0c0.009,0,0.408,0,0.408,0v0.108
			c8.75-0.022,41.048-1.612,59.699-4.989c18.786-3.398,19.051-13.217,19.051-14.47s0-6.618,0-6.618V80H21.25v49.031
			C21.25,129.031,21.25,134.396,21.25,135.649z"/>
	</g>
	<g>
		<g enable-background="new    ">
			<path fill="#FFFFFF" d="M61.255,115.88c2.597,1.84,3.462,5.193,3.462,8.438c0,6.005-2.056,10.062-8.763,10.062h-7.573V97.921
				h6.112c6.762,0,9.629,3.571,9.629,10.062C64.122,111.065,63.527,113.986,61.255,115.88z M54.493,99.383h-4.651v33.482h6.112
				c5.572,0,7.249-3.462,7.249-8.547c0-3.624-1.19-7.41-5.085-8.223c3.516-1.351,4.49-4.597,4.49-8.112
				C62.607,102.411,60.173,99.383,54.493,99.383z M54.602,100.355c4.922,0,7.032,2.867,7.032,7.628c0,4.488-1.785,7.788-6.653,7.788
				H50.87v-15.416H54.602z M50.87,131.893v-15.201h4.543c5.031,0,6.762,2.867,6.762,7.627c0,4.544-1.352,7.574-6.383,7.574H50.87z
				 M52.33,114.258h2.65c3.787,0,5.139-2.651,5.139-6.274c0-3.786-1.623-6.167-5.518-6.167H52.33V114.258z M60.66,124.318
				c0-3.786-1.298-6.111-5.247-6.111H52.33v12.224h3.462C59.633,130.431,60.66,127.997,60.66,124.318z"/>
			<path fill="#FFFFFF" d="M65.532,134.38l8.331-36.459H77l8.276,36.459h-4.057l-2.272-10.439h-6.924l-2.434,10.439H65.532z
				 M70.725,122.479h9.412l2.326,10.386h0.974L75.81,99.383h-0.758l-7.681,33.482h1.028L70.725,122.479z M79.921,121.506h-8.979
				l4.489-19.636L79.921,121.506z M72.834,120.045h5.193l-2.597-11.576L72.834,120.045z"/>
			<path fill="#FFFFFF" d="M94.638,114.907l10.386,19.473h-4.598l-8.222-15.524l-0.595,1.027v14.497H87.66V97.867h3.948v14.442
				l7.952-14.442h4.706L94.638,114.907z M100.425,99.383l-10.278,18.391V99.383H89.12v33.482h1.027v-13.361l2.164-3.57l9.034,16.932
				h1.135l-9.52-18.013l8.655-15.47H100.425z"/>
			<path fill="#FFFFFF" d="M105.891,134.38V97.921h3.949v36.459H105.891z M108.379,99.383h-1.027v33.482h1.027V99.383z"/>
			<path fill="#FFFFFF" d="M117.414,134.38h-3.948V97.921h3.3l9.736,24.126V97.921h3.948v36.459h-3.3
				c-2.109-5.084-4.489-11.089-9.736-24.125V134.38z M128.125,132.865h0.811V99.383h-0.919v30.398l-12.226-30.398h-0.864v33.482
				h1.028v-30.399C120.064,112.635,124.014,122.75,128.125,132.865z"/>
			<path fill="#FFFFFF" d="M134.295,124.535v-16.822c0-5.627,2.865-10.17,9.086-10.17c6.762,0,8.655,4.705,8.655,12.116h-3.949
				c0-4.165-0.703-8.167-4.706-8.167c-3.732,0-5.139,3.19-5.139,6.707v16.336c0,3.408,1.515,6.274,5.031,6.274
				c3.407,0,4.977-3.028,4.977-6.274v-6.328h-5.843v-3.949h9.791v10.277c0,5.464-2.759,10.17-8.925,10.17
				C137.053,134.705,134.295,130.106,134.295,124.535z M150.737,124.535v-8.764h-6.869v0.92h5.896v7.844
				c0,4.002-2.056,7.735-6.491,7.735c-4.544,0-6.491-3.57-6.491-7.735v-16.336c0-4.327,1.784-8.223,6.599-8.223
				c4.762,0,6.221,4.165,6.221,8.385h0.975c0-5.301-2.056-9.304-7.195-9.304c-5.139,0-7.572,3.894-7.572,8.655v16.822
				c0,4.761,2.326,8.708,7.465,8.708S150.737,129.188,150.737,124.535z"/>
		</g>
	</g>
	<g>
		<g>
			<path fill="#FFFFFF" d="M103.751,24.324c-3.528-1.013-6.26-2.427-6.386-6.453c-0.001,1.535-0.004,3.07-0.006,4.604
				c0.354-3.568,1.99-6.749,3.059-10.13c1.176-3.726,4.796-6.111,6.116-9.733c1.844-5.059-1.506-10.505-4.449-14.12
				c0.75,0.923-0.779,3.73,0,4.688c2.006,2.465,4.503,5.17,4.584,8.536c0.001-1.535,0.003-3.07,0.006-4.604
				c-0.59,3.422-3.837,6.175-5.543,9.109c-1.875,3.226-3.406,7.864-3.773,11.568c-0.554,5.593,0.374,9.498,6.392,11.224
				C103.369,28.902,104.197,24.453,103.751,24.324L103.751,24.324z"/>
		</g>
	</g>
	<g>
		<g>
			<path fill="#FFFFFF" d="M83.334,24.741c-2.67-1.243-5.719-2.679-6.315-5.846c0.005,1.333,0.011,2.667,0.016,4
				c0.059-4.526,7.07-8.377,10.167-10.693c3.704-2.773,4.684-4.512,4.684-9.004c0-4.312-1.297-6.89-5.279-8.985
				c-3.567-1.876-9.839-2.73-10.469-7.553c0.002,1.535,0.004,3.069,0.006,4.604c0.001-0.928,0.177-1.817,0.522-2.669
				c0.462-1.424-0.453-3.284,0-4.688c-0.993,3.074-1.344,8.189,1.076,10.623C82.1-1.089,91.045-2.125,91.861,5.544
				c-0.001-1.535-0.003-3.069-0.006-4.604c-0.18,6.973-11.301,9.78-14.405,15.715c-2.88,5.503,1.215,10.603,5.882,12.776
				C82.765,29.164,83.96,25.032,83.334,24.741L83.334,24.741z"/>
		</g>
	</g>
	<g>
		<g>
			<path fill="#FFFFFF" d="M122.084,26.824c-2.274-3.478-4.611-7.208-5.107-11.408c0,1.562,0,3.125,0,4.688
				c0.613-6.255,6.525-2.824,10.408-3.195c4.033-0.383,5.394-6.53,5.403-9.821c0.007-2.69,0.014-5.011-1.127-7.532
				c-2.105-4.657-6.539-7.629-7.91-12.731c0.39,1.448-0.392,3.223,0,4.688c1.727,6.431,8.788,10.288,9.009,17.214
				c0.003-1.535,0.005-3.07,0.006-4.604c-0.533,4.246-3.01,8.531-7.719,8.104c-3.359-0.303-7.881-2.104-8.076,3.275
				c-0.225,6.155,1.699,10.793,5.113,16.011C121.379,30.434,122.811,27.934,122.084,26.824L122.084,26.824z"/>
		</g>
	</g>
</g>
</svg>
