<?xml version="1.0" encoding="utf-8"?>
<!-- Generator: Adobe Illustrator 16.0.4, SVG Export Plug-In . SVG Version: 6.00 Build 0)  -->
<!DOCTYPE svg PUBLIC "-//W3C//DTD SVG 1.1//EN" "http://www.w3.org/Graphics/SVG/1.1/DTD/svg11.dtd">
<svg version="1.1" id="Layer_1" xmlns="http://www.w3.org/2000/svg" xmlns:xlink="http://www.w3.org/1999/xlink" x="0px" y="0px"
	 width="250px" height="187.5px" viewBox="-25 -18.75 250 187.5" enable-background="new -25 -18.75 250 187.5"
	 xml:space="preserve">
<g>
	<rect x="-25" y="-18.75" fill="#F46F22" width="250" height="187.5"/>
	<g>
		<g>
			<path fill="#19BEBE" d="M130.811,53.94L192.5-18.75H-25l105.209,132.4l39.088-46.175c-16.104-0.074-37.142-1.734-44.858-9.449
				C74.439,58.026,99.001,54.79,130.811,53.94z"/>
			<path fill="#19BEBE" d="M130.811,53.838l-11.514,13.585c11.387,0.051,20.311-0.703,20.311-0.703
				c34.404,0,65.166-8.772,65.166-8.772C180.703,53.875,153.855,53.224,130.811,53.838z"/>
			<path fill="#F46F22" d="M74.439,57.95c7.717,7.715,28.754,9.401,44.859,9.474l11.514-13.585
				C99.001,54.688,74.439,57.95,74.439,57.95z"/>
		</g>
		<path fill="#FBB333" d="M217.732,76.587c-0.25-2.08-2.396-2.794-2.396-2.794c-4.985-1.734-11.386-1.363-11.386-1.363
			s-0.201,0.069-0.201,0.187c0-4.219,0-9.736,0-10.426c0-1.131,0.625-0.964,0.625-0.964c1.229-0.143,1.313-0.77,1.313-2.022
			c0-1.254-1.177-0.868-1.079-1.254c0,0-21.816,5.423-65.084,5.423c-44.562,0-65.092-5.423-65.092-5.423
			c0.097,0.386-1.106,0-1.106,1.254c0,1.253-0.019,1.879,1.211,2.022c0,0,0.462-0.168,0.462,0.964c0,0.679,0,6.043,0,10.237
			c0-0.021-6.447-0.318-11.283,1.364c0,0,0.02,0.012,0.031,0.035c-0.017-0.021-0.021-0.035-0.021-0.035s-2.139,0.715-2.388,2.792
			c-0.378,3.166,2.474,4.964,4.83,5.303c5.731,0.832,8.83,0.221,8.83,0.221v57.734c0,0,0,4.336,0,5.346
			c0,1.014,0.635,8.963,15.812,11.709c15.071,2.729,41.443,4.183,48.606,4.198l0.052,0.154c0.008,0,0.018,0,0.026,0
			c0.013,0,0.029,0,0.042,0c0.014,0,0.029,0,0.043,0c0.008,0,0.418,0,0.418,0v-0.339c6.25-0.018,33.228-1.303,48.299-4.031
			c15.176-2.743,15.451-10.678,15.451-11.691c0-1.012,0-5.346,0-5.346V82.107c0,0,3.257,0.611,8.989-0.219
			C215.099,81.548,218.11,79.751,217.732,76.587z M69.393,77.639c-0.699-0.089-1.893-0.346-1.893-0.684c0,0,0,0.003,0,0.006
			c0,0,2.5-1.234,7.5-0.008c0,0.354,0,0.559,0,0.559S72.505,78.037,69.393,77.639z M209.609,77.639
			c-3.111,0.396-5.859-0.127-5.859-0.127s0-0.189,0-0.518c0-0.013,0.142-0.021,0.2-0.033c4.817-1.155,7.362-0.162,7.69-0.02
			C211.004,77.286,210.317,77.549,209.609,77.639z"/>
	</g>
	<g>
		<g enable-background="new    ">
			<path fill="#FFFFFF" d="M14.829,24.076v-35.469h7.578c6.42,0,8.788,4.42,8.788,10.104v15.261c0,5.736-2.315,10.104-8.788,10.104
				H14.829z M29.721,13.972V-1.289c0-4.841-1.947-8.683-7.315-8.683h-6.104v32.574h6.104C27.827,22.603,29.721,18.918,29.721,13.972
				z M17.197-9.024h4.841c4.999,0,6.788,3.473,6.788,7.999v14.734c0,4.526-1.789,8-6.788,8h-4.841V-9.024z M22.038,20.234
				c3.946,0,5.315-2.842,5.315-6.526V-1.025c0-3.684-1.369-6.578-5.315-6.578H18.67v27.838H22.038z"/>
			<path fill="#FFFFFF" d="M37.773-7.604V4.5h6.946v3.841h-6.946v11.894h10.42v3.842H34.038l-0.053-35.469h14.209v3.789H37.773z
				 M46.719-9.972H35.405l0.053,32.574h11.261v-0.895H36.353V6.868h6.946V5.973h-6.946V-9.024h10.367V-9.972z"/>
			<path fill="#FFFFFF" d="M48.142,11.973h3.841c0,4.894,0.526,8.578,4.42,8.578c3.052,0,4.578-1.895,4.578-4.948
				c0-2.788-2.789-5.42-5-7.262l0.053,0.053c-3.525-2.525-7.578-6.63-7.578-11.471c0-4.896,3.105-8.683,8.209-8.683
				c7.104,0,7.841,5.315,7.841,11.945h-3.841c0-4.104-0.263-8.104-4-8.104c-2.895,0-4.368,2.314-4.368,5.104
				c0,2.894,2.842,5.315,5.684,7.84V4.973c3.42,3.053,6.841,6.209,6.841,10.578c0,5.578-2.736,8.841-8.42,8.841
				C49.826,24.392,48.142,20.077,48.142,11.973z M63.403,15.551c0-7.684-12.577-11.209-12.577-18.366c0-3.578,2-6.579,5.841-6.579
				c5.104,0,5.42,4.526,5.473,8.157h0.895c0-5.473-1.105-9.104-6.368-9.104c-4.21,0-6.736,3.211-6.736,7.264
				c0,4.261,3.736,7.945,6.999,10.313h-0.052c2.473,2.052,5.578,5.42,5.578,8.367c0,4-2,6.421-6.052,6.421
				c-5.21,0-5.841-5-5.841-8.578h-1c0,5.788,1.526,9.473,6.841,9.473C61.14,22.919,63.403,20.234,63.403,15.551z"/>
			<path fill="#FFFFFF" d="M67.246,11.973h3.842c0,4.894,0.526,8.578,4.42,8.578c3.052,0,4.578-1.895,4.578-4.948
				c0-2.788-2.789-5.42-4.999-7.262l0.052,0.053c-3.525-2.525-7.578-6.63-7.578-11.471c0-4.896,3.105-8.683,8.209-8.683
				c7.104,0,7.841,5.315,7.841,11.945h-3.842c0-4.104-0.263-8.104-4-8.104c-2.895,0-4.368,2.314-4.368,5.104
				c0,2.894,2.842,5.315,5.684,7.84V4.973c3.42,3.053,6.841,6.209,6.841,10.578c0,5.578-2.736,8.841-8.42,8.841
				C68.93,24.392,67.246,20.077,67.246,11.973z M82.507,15.551c0-7.684-12.577-11.209-12.577-18.366c0-3.578,2-6.579,5.841-6.579
				c5.104,0,5.42,4.526,5.473,8.157h0.895c0-5.473-1.105-9.104-6.368-9.104c-4.209,0-6.736,3.211-6.736,7.264
				c0,4.261,3.736,7.945,6.999,10.313h-0.053c2.473,2.052,5.578,5.42,5.578,8.367c0,4-2,6.421-6.052,6.421
				c-5.21,0-5.841-5-5.841-8.578h-1c0,5.788,1.526,9.473,6.841,9.473C80.244,22.919,82.507,20.234,82.507,15.551z"/>
			<path fill="#FFFFFF" d="M89.454-7.604V4.5h6.947v3.841h-6.947v11.894h10.42v3.842H85.718l-0.053-35.469h14.209v3.789H89.454z
				 M98.4-9.972H87.086l0.053,32.574H98.4v-0.895H88.033V6.868h6.947V5.973h-6.947V-9.024H98.4V-9.972z"/>
			<path fill="#FFFFFF" d="M115.715,6.342c1.631,1.525,2.21,4.157,2.21,6.525v11.209h-3.841V13.025c0-3.263-1.105-4.631-4.421-4.631
				h-3.63v15.683h-3.844v-35.469h7.578c6.79,0,8.368,4.053,8.368,9.946C118.136,1.238,117.662,4.395,115.715,6.342z M109.768-9.972
				h-6.156v32.574h1V6.92h5.052c4.421,0,5.843,1.842,5.843,6.105v9.578h0.998v-9.735c0-2.789-0.684-5.684-3.84-6.421
				c3.471-1.052,3.998-4.735,3.998-7.893C116.662-6.445,115.347-9.972,109.768-9.972z M104.611,5.973V-8.972h4.947
				c5.157,0,6.156,3.053,6.156,7.526c0,4.999-1.315,7.419-6.631,7.419H104.611z M114.242-1.446c0-3.632-0.737-6.105-4.684-6.105
				h-3.525V4.5h3.051C113.242,4.5,114.242,2.553,114.242-1.446z"/>
			<path fill="#FFFFFF" d="M135.24-7.604h-5.895v31.627h-3.84V-7.604h-5.895v-3.842h15.629V-7.604z M121.084-9.972v0.947h5.842
				v31.627h0.999V-9.024h5.895v-0.947H121.084z"/>
			<path fill="#FFFFFF" d="M135.506,11.973h3.84c0,4.894,0.526,8.578,4.42,8.578c3.053,0,4.579-1.895,4.579-4.948
				c0-2.788-2.789-5.42-4.999-7.262l0.053,0.053c-3.526-2.525-7.578-6.63-7.578-11.471c0-4.896,3.105-8.683,8.209-8.683
				c7.104,0,7.841,5.315,7.841,11.945h-3.842c0-4.104-0.263-8.104-3.999-8.104c-2.895,0-4.367,2.314-4.367,5.104
				c0,2.894,2.842,5.315,5.684,7.84V4.973c3.42,3.053,6.841,6.209,6.841,10.578c0,5.578-2.737,8.841-8.421,8.841
				C137.188,24.392,135.506,20.077,135.506,11.973z M150.766,15.551c0-7.684-12.577-11.209-12.577-18.366
				c0-3.578,1.999-6.579,5.841-6.579c5.105,0,5.42,4.526,5.473,8.157h0.895c0-5.473-1.104-9.104-6.367-9.104
				c-4.21,0-6.735,3.211-6.735,7.264c0,4.261,3.736,7.945,6.999,10.313h-0.054c2.475,2.052,5.579,5.42,5.579,8.367
				c0,4-2,6.421-6.053,6.421c-5.209,0-5.841-5-5.841-8.578h-0.999c0,5.788,1.526,9.473,6.84,9.473
				C148.502,22.919,150.766,20.234,150.766,15.551z"/>
		</g>
	</g>
</g>
</svg>
