<?xml version="1.0" encoding="utf-8"?>
<!-- Generator: Adobe Illustrator 16.0.4, SVG Export Plug-In . SVG Version: 6.00 Build 0)  -->
<!DOCTYPE svg PUBLIC "-//W3C//DTD SVG 1.1//EN" "http://www.w3.org/Graphics/SVG/1.1/DTD/svg11.dtd">
<svg version="1.1" id="Layer_1" xmlns="http://www.w3.org/2000/svg" xmlns:xlink="http://www.w3.org/1999/xlink" x="0px" y="0px"
	 width="234px" height="80px" viewBox="0 0 234 80" enable-background="new 0 0 234 80" xml:space="preserve">
<g>
	<rect fill="#F46F22" width="234" height="80"/>
	<path fill="#FBB333" d="M216.612,55.183c-4.45,0-13.546,1.716-25.253,3.144c-11.712,1.428-15.476,0.956-21.798,3.814
		c-3.064,1.383-5.958,1.729-8.425,1.725l10.889-7.467c0-1.633-1.322-2.951-2.951-2.951H11.603c-1.632,0-2.955,1.318-2.955,2.951
		l30.135,20.668c0,1.629,0.832,2.953,1.862,2.953h99.385c1.029,0,1.863-1.324,1.863-2.953l8.369-5.74h4.326h4.646h7.377
		c0.743,0,1.365,0,1.794,0c2.812,0,10.637-4.87,15.458-5.857c4.846-0.993,8.859-4.699,29.938-1.841c0,0,8.898,4.412,10.539-1.591
		C225.979,56.041,221.061,55.183,216.612,55.183z"/>
	<g>
		<path fill="#FFFFFF" d="M27.462,47.389h6.06c0,7.72,0.83,13.53,6.972,13.53c4.814,0,7.221-2.989,7.221-7.804
			c0-4.398-4.4-8.547-7.886-11.451l0.083,0.08C34.351,37.761,27.96,31.288,27.96,23.652c0-7.718,4.897-13.693,12.948-13.693
			c11.204,0,12.367,8.382,12.367,18.84h-6.059c0-6.475-0.415-12.783-6.308-12.783c-4.565,0-6.889,3.653-6.889,8.053
			c0,4.564,4.481,8.382,8.964,12.364v-0.081c5.394,4.813,10.789,9.795,10.789,16.682c0,8.799-4.316,13.944-13.279,13.944
			C30.118,66.978,27.462,60.172,27.462,47.389z M51.531,53.033c0-12.117-19.836-17.678-19.836-28.965
			c0-5.645,3.154-10.375,9.214-10.375c8.05,0,8.548,7.138,8.632,12.864h1.411c0-8.631-1.744-14.356-10.042-14.356
			c-6.641,0-10.624,5.062-10.624,11.451c0,6.724,5.893,12.532,11.039,16.268H41.24c3.902,3.236,8.798,8.549,8.798,13.195
			c0,6.311-3.154,10.127-9.544,10.127c-8.216,0-9.213-7.885-9.213-13.529h-1.577c0,9.131,2.407,14.939,10.791,14.939
			C47.962,64.652,51.531,60.421,51.531,53.033z"/>
		<path fill="#FFFFFF" d="M68.381,36.602l15.935,29.878h-7.055L64.645,42.658l-0.912,1.578v22.243h-6.059V10.455h6.059v22.16
			l12.201-22.16h7.22L68.381,36.602z M77.261,12.779L61.492,40.998V12.779h-1.577v51.377h1.577V43.655l3.32-5.478l13.859,25.979
			h1.744L65.808,36.518l13.279-23.738H77.261z"/>
		<path fill="#FFFFFF" d="M85.646,66.479v-55.94h6.059v55.94H85.646z M89.462,12.779h-1.576v51.377h1.576V12.779z"/>
		<path fill="#FFFFFF" d="M96.767,66.479v-55.94h5.975v49.882h12.699v6.059H96.767z M113.199,62.744h-12.696V12.779h-1.495v51.377
			h14.191V62.744z"/>
		<path fill="#FFFFFF" d="M120.09,66.479v-55.94h5.976v49.882h12.698v6.059H120.09z M136.521,62.744h-12.696V12.779h-1.495v51.377
			h14.191V62.744z"/>
	</g>
	<g>
		<path fill="#FFFFFF" d="M136.005,14.643v12.925h7.419v4.101h-7.419V44.37h11.127v4.102h-15.118l-0.056-37.876h15.174v4.047
			H136.005z M145.559,12.111h-12.083l0.054,34.787h12.029v-0.957h-11.071V30.098h7.419v-0.957h-7.419V13.125h11.071V12.111z"/>
		<path fill="#FFFFFF" d="M165.227,14.643h-6.296v33.773h-4.101V14.643h-6.295v-4.104h16.691V14.643z M150.109,12.111v1.014h6.238
			v33.773h1.067V13.125h6.293v-1.014H150.109z"/>
	</g>
</g>
</svg>
